<?xml version="1.0" standalone="no"?>
<!DOCTYPE svg PUBLIC "-//W3C//DTD SVG 20010904//EN"
 "http://www.w3.org/TR/2001/REC-SVG-20010904/DTD/svg10.dtd">
<svg version="1.0" xmlns="http://www.w3.org/2000/svg"
 width="700.000000pt" height="700.000000pt" viewBox="0 0 700.000000 700.000000"
 preserveAspectRatio="xMidYMid meet">
<metadata>
Created by potrace 1.14, written by Peter Selinger 2001-2017
</metadata>
<g transform="translate(0.000000,700.000000) scale(0.100000,-0.100000)"
fill="#000000" stroke="none">
<path d="M3391 6858 c-122 -158 -129 -168 -252 -323 -397 -501 -671 -861 -848
-1115 -55 -80 -104 -149 -109 -155 -4 -5 -23 -35 -42 -65 -19 -30 -38 -59 -43
-65 -17 -22 -156 -243 -202 -323 -6 -9 -30 -51 -55 -92 -136 -232 -309 -582
-405 -825 -84 -210 -189 -543 -211 -665 -3 -14 -7 -32 -10 -40 -3 -8 -12 -51
-20 -95 -7 -44 -16 -89 -18 -100 -4 -23 -22 -148 -30 -214 -21 -165 -27 -488
-13 -625 10 -90 25 -200 31 -217 3 -8 7 -30 10 -49 12 -80 63 -252 113 -380
29 -75 129 -283 153 -320 10 -14 37 -56 61 -95 75 -122 190 -265 304 -379 142
-143 173 -170 337 -290 101 -74 369 -216 508 -269 272 -103 518 -149 815 -151
200 -1 330 6 408 23 23 5 59 12 80 15 73 11 292 71 352 95 11 5 52 21 90 37
217 86 479 245 655 399 46 40 217 211 255 255 224 260 425 647 501 965 21 90
54 286 61 369 13 141 5 506 -12 616 -2 14 -7 48 -10 75 -3 28 -13 88 -22 135
-8 47 -16 94 -18 105 -14 95 -74 321 -132 500 -97 298 -265 683 -423 965 -30
52 -63 112 -74 132 -41 73 -176 296 -221 362 -25 37 -45 70 -45 72 0 3 -5 10
-10 17 -6 7 -64 91 -130 187 -154 227 -529 733 -641 865 -10 11 -47 58 -83
105 -37 47 -72 92 -79 100 -37 45 -314 400 -381 488 -43 56 -82 102 -86 102
-4 0 -53 -60 -109 -132z"/>
</g>
</svg>
